:SAMPLES-PER-SECOND 30
:FRAME-RANGE 1-1086
:FULLY-SPECIFIED
:DEGREES
238
root  -90.8027 38.61 -79.7765 8.12427 -5.27673 -1.32263
RightUpLeg  -30.7348 -5.41377 -5.66648
RightLeg  18.0626 -4.29368 -1.76676
RightFoot  -5.37657 -0.365322 6.30192
RightToes  1.21801e-010 1.2921e-014 -6.02303e-014
Spine  -2.88839 0.28532 3.00619
Spine1  7.60604 1.74119 -5.59766
HEad  11.7382 -0.795193 2.01901
LeftShoulder1  1.99089 -4.69653 -18.5783
LeftArm  23.5467 -10.0346 -63.6271
LeftForeArm  15.498 -11.156 -12.739
LeftHand  -0.046916 4.18042 2.53662
RightShoulder  2.73877 5.12691 26.5364
RightArm  -23.6677 11.2107 49.3564
RightForeArm  84.6327 -4.71028 3.62616
RightHand  0.500315 -8.83494 -17.4423
LeftUpLeg  0.99969 4.87409 4.87213
LeftLeg  14.6985 -9.17574 -0.885691
LeftFoot  -18.1194 -0.0585372 -2.82232
LeftToes  3.79492e-011 -8.60219e-011 1.56273e-011
239
root  -91.3426 38.4879 -78.8717 8.13728 -5.63338 -1.13031
RightUpLeg  -30.5672 -2.90923 -7.94926
RightLeg  12.1429 -5.85493 -1.76769
RightFoot  -4.10207 -0.392601 5.75863
RightToes  1.21801e-010 1.2921e-014 -6.02303e-014
Spine  -3.42827 -0.0691697 2.79254
Spine1  7.67965 1.27804 -5.09074
HEad  12.866 -0.151489 1.49734
LeftShoulder1  2.01056 -4.78198 -18.5574
LeftArm  23.4584 -11.6333 -64.4475
LeftForeArm  16.513 -11.4668 -12.4495
LeftHand  -0.0565362 4.02264 3.17671
RightShoulder  2.60569 4.61651 26.9583
RightArm  -26.9904 6.24233 47.7778
RightForeArm  83.0855 -4.48269 1.8575
RightHand  0.331472 -7.63992 -17.8917
LeftUpLeg  2.8517 5.09923 5.5684
LeftLeg  14.2151 -9.55865 -0.841208
LeftFoot  -18.2321 -0.160377 -4.47684
LeftToes  3.79492e-011 -8.60219e-011 1.56273e-011
240
root  -91.9649 38.3399 -77.8742 7.89432 -5.37941 -1.05447
RightUpLeg  -30.1137 -2.55842 -8.99554
RightLeg  8.47163 -5.05193 -1.86017
RightFoot  -5.32513 -0.307589 5.15896
RightToes  1.21801e-010 1.2921e-014 -6.02303e-014
Spine  -3.71337 -0.610502 2.78739
Spine1  7.64456 0.550966 -4.522
HEad  13.932 0.422554 0.758873
LeftShoulder1  2.02199 -4.74219 -18.8434
LeftArm  23.1932 -13.1917 -64.7524
LeftForeArm  16.1482 -11.7528 -12.213
LeftHand  -0.0618792 3.89415 3.38235
RightShoulder  2.46828 4.13798 27.229
RightArm  -29.5097 2.01558 46.3571
RightForeArm  81.8323 -4.30556 0.487717
RightHand  0.290247 -7.3215 -18.3017
LeftUpLeg  4.9799 5.29168 6.71072
LeftLeg  13.8798 -10.6601 -0.862227
LeftFoot  -18.1881 -0.260705 -6.1748
LeftToes  3.79492e-011 -8.60219e-011 1.56273e-011
241
root  -92.6629 38.1102 -76.8573 7.75798 -5.75493 -0.507446
RightUpLeg  -30.7598 -2.87517 -9.91813
RightLeg  8.45678 -3.7264 -1.73821
RightFoot  -6.45241 -0.242356 4.6455
RightToes  1.21801e-010 1.2921e-014 -6.02303e-014
Spine  -3.65215 -0.764664 2.23134
Spine1  7.16448 0.218849 -3.77304
HEad  14.6114 0.981721 -0.219511
LeftShoulder1  2.03073 -4.63378 -19.3315
LeftArm  20.8761 -14.8266 -65.0511
LeftForeArm  16.9696 -11.2169 -12.2867
LeftHand  -0.0607134 3.93598 3.3689
RightShoulder  2.36887 3.87009 27.0704
RightArm  -30.0244 -2.87491 44.7121
RightForeArm  82.0912 -4.29735 0.505773
RightHand  0.251104 -7.22875 -16.8934
LeftUpLeg  6.60449 5.07517 7.24506
LeftLeg  14.5053 -10.9368 -0.959245
LeftFoot  -18.1269 -0.376965 -8.17798
LeftToes  3.79492e-011 -8.60219e-011 1.56273e-011
242
root  -93.4694 37.8927 -75.7303 7.4117 -5.75748 -0.264236
RightUpLeg  -30.7096 -2.67484 -10.3611
RightLeg  10.4755 -5.16839 -1.86853
RightFoot  -7.83605 -0.164519 3.63465
RightToes  1.21801e-010 1.2921e-014 -6.02303e-014
Spine  -3.85052 -0.990739 2.14856
Spine1  7.32484 -0.188433 -3.24116
HEad  14.9413 1.68603 -1.08588
LeftShoulder1  2.06128 -4.79192 -19.2003
LeftArm  16.9793 -16.4619 -65.3866
LeftForeArm  19.1946 -9.5728 -12.7476
LeftHand  -0.0928576 3.01314 3.87552
RightShoulder  2.30324 3.65254 27.1584
RightArm  -31.9421 -5.72645 43.5444
RightForeArm  83.6918 -4.01326 -0.745616
RightHand  0.356136 -8.08665 -16.1519
LeftUpLeg  8.42387 4.62152 8.43499
LeftLeg  15.4017 -11.5963 -1.27551
LeftFoot  -17.4523 -0.464698 -10.636
LeftToes  3.79492e-011 -8.60219e-011 1.56273e-011
243
root  -94.4268 37.587 -74.4316 7.0275 -5.91394 0.160873
RightUpLeg  -31.0343 -3.79295 -9.59065
RightLeg  15.5661 -7.77994 -2.64843
RightFoot  -10.5903 -0.0850791 2.0245
RightToes  1.21801e-010 1.2921e-014 -6.02303e-014
Spine  -4.79923 -1.16 1.7729
Spine1  8.0113 -0.465089 -3.02778
HEad  15.2959 2.76676 -1.75398
LeftShoulder1  2.10092 -5.11262 -18.6628
LeftArm  15.8083 -16.9902 -65.5149
LeftForeArm  17.9636 -9.3935 -12.7316
LeftHand  -0.120432 2.91078 5.07045
RightShoulder  2.19676 3.2928 27.3485
RightArm  -33.4302 -8.51231 42.7465
RightForeArm  83.8285 -3.84988 -1.65986
RightHand  0.476188 -8.85965 -16.5759
LeftUpLeg  10.2252 3.29242 9.2314
LeftLeg  16.8067 -11.0704 -1.27426
LeftFoot  -16.3773 -0.514409 -13.8639
LeftToes  3.79492e-011 -8.60219e-011 1.56273e-011
